<svg t="1586930046398" class="icon" viewBox="0 0 1024 1024" version="1.1" xmlns="http://www.w3.org/2000/svg" p-id="3312" data-spm-anchor-id="a313x.7781069.0.i31" width="128" height="128"><path d="M213.333333 213.333333h119.466667v119.466667H213.333333z" fill="#1afa29" p-id="3313" data-spm-anchor-id="a313x.7781069.0.i37" class=""></path><path d="M213.333333 375.466667h119.466667v119.466666H213.333333zM375.466667 213.333333h119.466666v119.466667H375.466667z" fill="#1afa29" p-id="3314" data-spm-anchor-id="a313x.7781069.0.i35" class=""></path><path d="M375.466667 375.466667h119.466666v119.466666H375.466667z" fill="#1afa29" p-id="3315" data-spm-anchor-id="a313x.7781069.0.i36" class=""></path><path d="M537.6 213.333333h119.466667v119.466667h-119.466667z" fill="#d81e06" p-id="3316" data-spm-anchor-id="a313x.7781069.0.i33" class=""></path><path d="M537.6 375.466667h119.466667v119.466666h-119.466667zM699.733333 213.333333h119.466667v119.466667h-119.466667z" fill="#e6e6e6" p-id="3317" data-spm-anchor-id="a313x.7781069.0.i30" class=""></path><path d="M699.733333 375.466667h119.466667v119.466666h-119.466667z" fill="#d81e06" p-id="3318" data-spm-anchor-id="a313x.7781069.0.i32" class=""></path><path d="M213.333333 537.6h119.466667v119.466667H213.333333z" fill="#1afa29" p-id="3319" data-spm-anchor-id="a313x.7781069.0.i38" class=""></path><path d="M375.466667 537.6h119.466666v119.466667H375.466667z" fill="#e6e6e6" p-id="3320" data-spm-anchor-id="a313x.7781069.0.i29" class=""></path><path d="M537.6 537.6h119.466667v119.466667h-119.466667zM699.733333 537.6h119.466667v119.466667h-119.466667z" fill="#1afa29" p-id="3321" data-spm-anchor-id="a313x.7781069.0.i40" class=""></path><path d="M213.333333 699.733333h119.466667v119.466667H213.333333z" fill="#e6e6e6" p-id="3322" data-spm-anchor-id="a313x.7781069.0.i28" class=""></path><path d="M375.466667 699.733333h119.466666v119.466667H375.466667z" fill="#d81e06" p-id="3323" data-spm-anchor-id="a313x.7781069.0.i34" class=""></path><path d="M537.6 699.733333h119.466667v119.466667h-119.466667zM699.733333 699.733333h119.466667v119.466667h-119.466667z" fill="#1afa29" p-id="3324" data-spm-anchor-id="a313x.7781069.0.i39" class=""></path></svg>